<mxfile host="app.diagrams.net" agent="Mozilla/5.0 (Macintosh; Intel Mac OS X 10.15; rv:130.0) Gecko/20100101 Firefox/130.0" version="24.7.7" pages="3">
  <diagram name="Resources" id="z0mxxkySpNtkc_CifnGy">
    <mxGraphModel dx="1194" dy="793" grid="1" gridSize="10" guides="1" tooltips="1" connect="1" arrows="1" fold="1" page="1" pageScale="1" pageWidth="850" pageHeight="1100" math="0" shadow="0">
      <root>
        <mxCell id="0" />
        <mxCell id="1" parent="0" />
      </root>
    </mxGraphModel>
  </diagram>
  <diagram id="d_hDl0-xj_WEgm-Ct2LM" name="Services">
    <mxGraphModel dx="1434" dy="822" grid="1" gridSize="10" guides="1" tooltips="1" connect="1" arrows="1" fold="1" page="1" pageScale="1" pageWidth="850" pageHeight="1100" math="0" shadow="0">
      <root>
        <mxCell id="0" />
        <mxCell id="1" parent="0" />
        <mxCell id="jlO6LnH5YCkx6k-9YU8t-1" value="User" style="shape=table;startSize=30;container=1;collapsible=0;childLayout=tableLayout;fillColor=#dae8fc;strokeColor=#6c8ebf;" parent="1" vertex="1">
          <mxGeometry x="80" y="130" width="160" height="217" as="geometry" />
        </mxCell>
        <mxCell id="jlO6LnH5YCkx6k-9YU8t-2" value="" style="shape=tableRow;horizontal=0;startSize=0;swimlaneHead=0;swimlaneBody=0;strokeColor=#82b366;top=0;left=0;bottom=0;right=0;collapsible=0;dropTarget=0;fillColor=#d5e8d4;points=[[0,0.5],[1,0.5]];portConstraint=eastwest;" parent="jlO6LnH5YCkx6k-9YU8t-1" vertex="1">
          <mxGeometry y="30" width="160" height="38" as="geometry" />
        </mxCell>
        <mxCell id="jlO6LnH5YCkx6k-9YU8t-3" value="&lt;i&gt;Name&lt;/i&gt;" style="shape=partialRectangle;html=1;whiteSpace=wrap;connectable=0;strokeColor=inherit;overflow=hidden;fillColor=none;top=0;left=0;bottom=0;right=0;pointerEvents=1;" parent="jlO6LnH5YCkx6k-9YU8t-2" vertex="1">
          <mxGeometry width="80" height="38" as="geometry">
            <mxRectangle width="80" height="38" as="alternateBounds" />
          </mxGeometry>
        </mxCell>
        <mxCell id="jlO6LnH5YCkx6k-9YU8t-4" value="&lt;i&gt;Type&lt;/i&gt;" style="shape=partialRectangle;html=1;whiteSpace=wrap;connectable=0;strokeColor=inherit;overflow=hidden;fillColor=none;top=0;left=0;bottom=0;right=0;pointerEvents=1;" parent="jlO6LnH5YCkx6k-9YU8t-2" vertex="1">
          <mxGeometry x="80" width="80" height="38" as="geometry">
            <mxRectangle width="80" height="38" as="alternateBounds" />
          </mxGeometry>
        </mxCell>
        <mxCell id="jlO6LnH5YCkx6k-9YU8t-5" value="" style="shape=tableRow;horizontal=0;startSize=0;swimlaneHead=0;swimlaneBody=0;strokeColor=inherit;top=0;left=0;bottom=0;right=0;collapsible=0;dropTarget=0;fillColor=none;points=[[0,0.5],[1,0.5]];portConstraint=eastwest;" parent="jlO6LnH5YCkx6k-9YU8t-1" vertex="1">
          <mxGeometry y="68" width="160" height="37" as="geometry" />
        </mxCell>
        <mxCell id="jlO6LnH5YCkx6k-9YU8t-6" value="First Name" style="shape=partialRectangle;html=1;whiteSpace=wrap;connectable=0;strokeColor=inherit;overflow=hidden;fillColor=none;top=0;left=0;bottom=0;right=0;pointerEvents=1;" parent="jlO6LnH5YCkx6k-9YU8t-5" vertex="1">
          <mxGeometry width="80" height="37" as="geometry">
            <mxRectangle width="80" height="37" as="alternateBounds" />
          </mxGeometry>
        </mxCell>
        <mxCell id="jlO6LnH5YCkx6k-9YU8t-7" value="String" style="shape=partialRectangle;html=1;whiteSpace=wrap;connectable=0;strokeColor=inherit;overflow=hidden;fillColor=none;top=0;left=0;bottom=0;right=0;pointerEvents=1;" parent="jlO6LnH5YCkx6k-9YU8t-5" vertex="1">
          <mxGeometry x="80" width="80" height="37" as="geometry">
            <mxRectangle width="80" height="37" as="alternateBounds" />
          </mxGeometry>
        </mxCell>
        <mxCell id="jlO6LnH5YCkx6k-9YU8t-8" value="" style="shape=tableRow;horizontal=0;startSize=0;swimlaneHead=0;swimlaneBody=0;strokeColor=inherit;top=0;left=0;bottom=0;right=0;collapsible=0;dropTarget=0;fillColor=none;points=[[0,0.5],[1,0.5]];portConstraint=eastwest;" parent="jlO6LnH5YCkx6k-9YU8t-1" vertex="1">
          <mxGeometry y="105" width="160" height="38" as="geometry" />
        </mxCell>
        <mxCell id="jlO6LnH5YCkx6k-9YU8t-9" value="Last Name" style="shape=partialRectangle;html=1;whiteSpace=wrap;connectable=0;strokeColor=inherit;overflow=hidden;fillColor=none;top=0;left=0;bottom=0;right=0;pointerEvents=1;" parent="jlO6LnH5YCkx6k-9YU8t-8" vertex="1">
          <mxGeometry width="80" height="38" as="geometry">
            <mxRectangle width="80" height="38" as="alternateBounds" />
          </mxGeometry>
        </mxCell>
        <mxCell id="jlO6LnH5YCkx6k-9YU8t-10" value="String" style="shape=partialRectangle;html=1;whiteSpace=wrap;connectable=0;strokeColor=inherit;overflow=hidden;fillColor=none;top=0;left=0;bottom=0;right=0;pointerEvents=1;" parent="jlO6LnH5YCkx6k-9YU8t-8" vertex="1">
          <mxGeometry x="80" width="80" height="38" as="geometry">
            <mxRectangle width="80" height="38" as="alternateBounds" />
          </mxGeometry>
        </mxCell>
        <mxCell id="jlO6LnH5YCkx6k-9YU8t-11" value="" style="shape=tableRow;horizontal=0;startSize=0;swimlaneHead=0;swimlaneBody=0;strokeColor=inherit;top=0;left=0;bottom=0;right=0;collapsible=0;dropTarget=0;fillColor=none;points=[[0,0.5],[1,0.5]];portConstraint=eastwest;" parent="jlO6LnH5YCkx6k-9YU8t-1" vertex="1">
          <mxGeometry y="143" width="160" height="37" as="geometry" />
        </mxCell>
        <mxCell id="jlO6LnH5YCkx6k-9YU8t-12" value="Email" style="shape=partialRectangle;html=1;whiteSpace=wrap;connectable=0;strokeColor=inherit;overflow=hidden;fillColor=none;top=0;left=0;bottom=0;right=0;pointerEvents=1;" parent="jlO6LnH5YCkx6k-9YU8t-11" vertex="1">
          <mxGeometry width="80" height="37" as="geometry">
            <mxRectangle width="80" height="37" as="alternateBounds" />
          </mxGeometry>
        </mxCell>
        <mxCell id="jlO6LnH5YCkx6k-9YU8t-13" value="Sting" style="shape=partialRectangle;html=1;whiteSpace=wrap;connectable=0;strokeColor=inherit;overflow=hidden;fillColor=none;top=0;left=0;bottom=0;right=0;pointerEvents=1;" parent="jlO6LnH5YCkx6k-9YU8t-11" vertex="1">
          <mxGeometry x="80" width="80" height="37" as="geometry">
            <mxRectangle width="80" height="37" as="alternateBounds" />
          </mxGeometry>
        </mxCell>
        <mxCell id="LmLwDNxzw1dqxqF0qV3L-1" style="shape=tableRow;horizontal=0;startSize=0;swimlaneHead=0;swimlaneBody=0;strokeColor=inherit;top=0;left=0;bottom=0;right=0;collapsible=0;dropTarget=0;fillColor=none;points=[[0,0.5],[1,0.5]];portConstraint=eastwest;" vertex="1" parent="jlO6LnH5YCkx6k-9YU8t-1">
          <mxGeometry y="180" width="160" height="37" as="geometry" />
        </mxCell>
        <mxCell id="LmLwDNxzw1dqxqF0qV3L-2" value="Organization" style="shape=partialRectangle;html=1;whiteSpace=wrap;connectable=0;strokeColor=inherit;overflow=hidden;fillColor=none;top=0;left=0;bottom=0;right=0;pointerEvents=1;" vertex="1" parent="LmLwDNxzw1dqxqF0qV3L-1">
          <mxGeometry width="80" height="37" as="geometry">
            <mxRectangle width="80" height="37" as="alternateBounds" />
          </mxGeometry>
        </mxCell>
        <mxCell id="LmLwDNxzw1dqxqF0qV3L-3" value="String" style="shape=partialRectangle;html=1;whiteSpace=wrap;connectable=0;strokeColor=inherit;overflow=hidden;fillColor=none;top=0;left=0;bottom=0;right=0;pointerEvents=1;" vertex="1" parent="LmLwDNxzw1dqxqF0qV3L-1">
          <mxGeometry x="80" width="80" height="37" as="geometry">
            <mxRectangle width="80" height="37" as="alternateBounds" />
          </mxGeometry>
        </mxCell>
        <mxCell id="jlO6LnH5YCkx6k-9YU8t-30" value="Organization" style="shape=table;startSize=30;container=1;collapsible=0;childLayout=tableLayout;fillColor=#dae8fc;strokeColor=#6c8ebf;" parent="1" vertex="1">
          <mxGeometry x="320" y="130" width="120" height="190" as="geometry" />
        </mxCell>
        <mxCell id="jlO6LnH5YCkx6k-9YU8t-31" value="" style="shape=tableRow;horizontal=0;startSize=0;swimlaneHead=0;swimlaneBody=0;strokeColor=inherit;top=0;left=0;bottom=0;right=0;collapsible=0;dropTarget=0;fillColor=none;points=[[0,0.5],[1,0.5]];portConstraint=eastwest;" parent="jlO6LnH5YCkx6k-9YU8t-30" vertex="1">
          <mxGeometry y="30" width="120" height="40" as="geometry" />
        </mxCell>
        <mxCell id="jlO6LnH5YCkx6k-9YU8t-32" value="" style="shape=partialRectangle;html=1;whiteSpace=wrap;connectable=0;strokeColor=inherit;overflow=hidden;fillColor=none;top=0;left=0;bottom=0;right=0;pointerEvents=1;" parent="jlO6LnH5YCkx6k-9YU8t-31" vertex="1">
          <mxGeometry width="60" height="40" as="geometry">
            <mxRectangle width="60" height="40" as="alternateBounds" />
          </mxGeometry>
        </mxCell>
        <mxCell id="jlO6LnH5YCkx6k-9YU8t-33" value="" style="shape=partialRectangle;html=1;whiteSpace=wrap;connectable=0;strokeColor=inherit;overflow=hidden;fillColor=none;top=0;left=0;bottom=0;right=0;pointerEvents=1;" parent="jlO6LnH5YCkx6k-9YU8t-31" vertex="1">
          <mxGeometry x="60" width="60" height="40" as="geometry">
            <mxRectangle width="60" height="40" as="alternateBounds" />
          </mxGeometry>
        </mxCell>
        <mxCell id="jlO6LnH5YCkx6k-9YU8t-34" value="" style="shape=tableRow;horizontal=0;startSize=0;swimlaneHead=0;swimlaneBody=0;strokeColor=inherit;top=0;left=0;bottom=0;right=0;collapsible=0;dropTarget=0;fillColor=none;points=[[0,0.5],[1,0.5]];portConstraint=eastwest;" parent="jlO6LnH5YCkx6k-9YU8t-30" vertex="1">
          <mxGeometry y="70" width="120" height="40" as="geometry" />
        </mxCell>
        <mxCell id="jlO6LnH5YCkx6k-9YU8t-35" value="" style="shape=partialRectangle;html=1;whiteSpace=wrap;connectable=0;strokeColor=inherit;overflow=hidden;fillColor=none;top=0;left=0;bottom=0;right=0;pointerEvents=1;" parent="jlO6LnH5YCkx6k-9YU8t-34" vertex="1">
          <mxGeometry width="60" height="40" as="geometry">
            <mxRectangle width="60" height="40" as="alternateBounds" />
          </mxGeometry>
        </mxCell>
        <mxCell id="jlO6LnH5YCkx6k-9YU8t-36" value="" style="shape=partialRectangle;html=1;whiteSpace=wrap;connectable=0;strokeColor=inherit;overflow=hidden;fillColor=none;top=0;left=0;bottom=0;right=0;pointerEvents=1;" parent="jlO6LnH5YCkx6k-9YU8t-34" vertex="1">
          <mxGeometry x="60" width="60" height="40" as="geometry">
            <mxRectangle width="60" height="40" as="alternateBounds" />
          </mxGeometry>
        </mxCell>
        <mxCell id="jlO6LnH5YCkx6k-9YU8t-37" value="" style="shape=tableRow;horizontal=0;startSize=0;swimlaneHead=0;swimlaneBody=0;strokeColor=inherit;top=0;left=0;bottom=0;right=0;collapsible=0;dropTarget=0;fillColor=none;points=[[0,0.5],[1,0.5]];portConstraint=eastwest;" parent="jlO6LnH5YCkx6k-9YU8t-30" vertex="1">
          <mxGeometry y="110" width="120" height="40" as="geometry" />
        </mxCell>
        <mxCell id="jlO6LnH5YCkx6k-9YU8t-38" value="" style="shape=partialRectangle;html=1;whiteSpace=wrap;connectable=0;strokeColor=inherit;overflow=hidden;fillColor=none;top=0;left=0;bottom=0;right=0;pointerEvents=1;" parent="jlO6LnH5YCkx6k-9YU8t-37" vertex="1">
          <mxGeometry width="60" height="40" as="geometry">
            <mxRectangle width="60" height="40" as="alternateBounds" />
          </mxGeometry>
        </mxCell>
        <mxCell id="jlO6LnH5YCkx6k-9YU8t-39" value="" style="shape=partialRectangle;html=1;whiteSpace=wrap;connectable=0;strokeColor=inherit;overflow=hidden;fillColor=none;top=0;left=0;bottom=0;right=0;pointerEvents=1;" parent="jlO6LnH5YCkx6k-9YU8t-37" vertex="1">
          <mxGeometry x="60" width="60" height="40" as="geometry">
            <mxRectangle width="60" height="40" as="alternateBounds" />
          </mxGeometry>
        </mxCell>
        <mxCell id="jlO6LnH5YCkx6k-9YU8t-40" value="" style="shape=tableRow;horizontal=0;startSize=0;swimlaneHead=0;swimlaneBody=0;strokeColor=inherit;top=0;left=0;bottom=0;right=0;collapsible=0;dropTarget=0;fillColor=none;points=[[0,0.5],[1,0.5]];portConstraint=eastwest;" parent="jlO6LnH5YCkx6k-9YU8t-30" vertex="1">
          <mxGeometry y="150" width="120" height="40" as="geometry" />
        </mxCell>
        <mxCell id="jlO6LnH5YCkx6k-9YU8t-41" value="" style="shape=partialRectangle;html=1;whiteSpace=wrap;connectable=0;strokeColor=inherit;overflow=hidden;fillColor=none;top=0;left=0;bottom=0;right=0;pointerEvents=1;" parent="jlO6LnH5YCkx6k-9YU8t-40" vertex="1">
          <mxGeometry width="60" height="40" as="geometry">
            <mxRectangle width="60" height="40" as="alternateBounds" />
          </mxGeometry>
        </mxCell>
        <mxCell id="jlO6LnH5YCkx6k-9YU8t-42" value="" style="shape=partialRectangle;html=1;whiteSpace=wrap;connectable=0;strokeColor=inherit;overflow=hidden;fillColor=none;top=0;left=0;bottom=0;right=0;pointerEvents=1;" parent="jlO6LnH5YCkx6k-9YU8t-40" vertex="1">
          <mxGeometry x="60" width="60" height="40" as="geometry">
            <mxRectangle width="60" height="40" as="alternateBounds" />
          </mxGeometry>
        </mxCell>
        <mxCell id="jlO6LnH5YCkx6k-9YU8t-43" value="Ticket" style="shape=table;startSize=30;container=1;collapsible=0;childLayout=tableLayout;fillColor=#d5e8d4;strokeColor=#82b366;" parent="1" vertex="1">
          <mxGeometry x="550" y="130" width="120" height="190" as="geometry" />
        </mxCell>
        <mxCell id="jlO6LnH5YCkx6k-9YU8t-44" value="" style="shape=tableRow;horizontal=0;startSize=0;swimlaneHead=0;swimlaneBody=0;strokeColor=inherit;top=0;left=0;bottom=0;right=0;collapsible=0;dropTarget=0;fillColor=none;points=[[0,0.5],[1,0.5]];portConstraint=eastwest;" parent="jlO6LnH5YCkx6k-9YU8t-43" vertex="1">
          <mxGeometry y="30" width="120" height="40" as="geometry" />
        </mxCell>
        <mxCell id="jlO6LnH5YCkx6k-9YU8t-45" value="" style="shape=partialRectangle;html=1;whiteSpace=wrap;connectable=0;strokeColor=inherit;overflow=hidden;fillColor=none;top=0;left=0;bottom=0;right=0;pointerEvents=1;" parent="jlO6LnH5YCkx6k-9YU8t-44" vertex="1">
          <mxGeometry width="60" height="40" as="geometry">
            <mxRectangle width="60" height="40" as="alternateBounds" />
          </mxGeometry>
        </mxCell>
        <mxCell id="jlO6LnH5YCkx6k-9YU8t-46" value="" style="shape=partialRectangle;html=1;whiteSpace=wrap;connectable=0;strokeColor=inherit;overflow=hidden;fillColor=none;top=0;left=0;bottom=0;right=0;pointerEvents=1;" parent="jlO6LnH5YCkx6k-9YU8t-44" vertex="1">
          <mxGeometry x="60" width="60" height="40" as="geometry">
            <mxRectangle width="60" height="40" as="alternateBounds" />
          </mxGeometry>
        </mxCell>
        <mxCell id="jlO6LnH5YCkx6k-9YU8t-47" value="" style="shape=tableRow;horizontal=0;startSize=0;swimlaneHead=0;swimlaneBody=0;strokeColor=inherit;top=0;left=0;bottom=0;right=0;collapsible=0;dropTarget=0;fillColor=none;points=[[0,0.5],[1,0.5]];portConstraint=eastwest;" parent="jlO6LnH5YCkx6k-9YU8t-43" vertex="1">
          <mxGeometry y="70" width="120" height="40" as="geometry" />
        </mxCell>
        <mxCell id="jlO6LnH5YCkx6k-9YU8t-48" value="" style="shape=partialRectangle;html=1;whiteSpace=wrap;connectable=0;strokeColor=inherit;overflow=hidden;fillColor=none;top=0;left=0;bottom=0;right=0;pointerEvents=1;" parent="jlO6LnH5YCkx6k-9YU8t-47" vertex="1">
          <mxGeometry width="60" height="40" as="geometry">
            <mxRectangle width="60" height="40" as="alternateBounds" />
          </mxGeometry>
        </mxCell>
        <mxCell id="jlO6LnH5YCkx6k-9YU8t-49" value="" style="shape=partialRectangle;html=1;whiteSpace=wrap;connectable=0;strokeColor=inherit;overflow=hidden;fillColor=none;top=0;left=0;bottom=0;right=0;pointerEvents=1;" parent="jlO6LnH5YCkx6k-9YU8t-47" vertex="1">
          <mxGeometry x="60" width="60" height="40" as="geometry">
            <mxRectangle width="60" height="40" as="alternateBounds" />
          </mxGeometry>
        </mxCell>
        <mxCell id="jlO6LnH5YCkx6k-9YU8t-50" value="" style="shape=tableRow;horizontal=0;startSize=0;swimlaneHead=0;swimlaneBody=0;strokeColor=inherit;top=0;left=0;bottom=0;right=0;collapsible=0;dropTarget=0;fillColor=none;points=[[0,0.5],[1,0.5]];portConstraint=eastwest;" parent="jlO6LnH5YCkx6k-9YU8t-43" vertex="1">
          <mxGeometry y="110" width="120" height="40" as="geometry" />
        </mxCell>
        <mxCell id="jlO6LnH5YCkx6k-9YU8t-51" value="" style="shape=partialRectangle;html=1;whiteSpace=wrap;connectable=0;strokeColor=inherit;overflow=hidden;fillColor=none;top=0;left=0;bottom=0;right=0;pointerEvents=1;" parent="jlO6LnH5YCkx6k-9YU8t-50" vertex="1">
          <mxGeometry width="60" height="40" as="geometry">
            <mxRectangle width="60" height="40" as="alternateBounds" />
          </mxGeometry>
        </mxCell>
        <mxCell id="jlO6LnH5YCkx6k-9YU8t-52" value="" style="shape=partialRectangle;html=1;whiteSpace=wrap;connectable=0;strokeColor=inherit;overflow=hidden;fillColor=none;top=0;left=0;bottom=0;right=0;pointerEvents=1;" parent="jlO6LnH5YCkx6k-9YU8t-50" vertex="1">
          <mxGeometry x="60" width="60" height="40" as="geometry">
            <mxRectangle width="60" height="40" as="alternateBounds" />
          </mxGeometry>
        </mxCell>
        <mxCell id="jlO6LnH5YCkx6k-9YU8t-53" value="" style="shape=tableRow;horizontal=0;startSize=0;swimlaneHead=0;swimlaneBody=0;strokeColor=inherit;top=0;left=0;bottom=0;right=0;collapsible=0;dropTarget=0;fillColor=none;points=[[0,0.5],[1,0.5]];portConstraint=eastwest;" parent="jlO6LnH5YCkx6k-9YU8t-43" vertex="1">
          <mxGeometry y="150" width="120" height="40" as="geometry" />
        </mxCell>
        <mxCell id="jlO6LnH5YCkx6k-9YU8t-54" value="" style="shape=partialRectangle;html=1;whiteSpace=wrap;connectable=0;strokeColor=inherit;overflow=hidden;fillColor=none;top=0;left=0;bottom=0;right=0;pointerEvents=1;" parent="jlO6LnH5YCkx6k-9YU8t-53" vertex="1">
          <mxGeometry width="60" height="40" as="geometry">
            <mxRectangle width="60" height="40" as="alternateBounds" />
          </mxGeometry>
        </mxCell>
        <mxCell id="jlO6LnH5YCkx6k-9YU8t-55" value="" style="shape=partialRectangle;html=1;whiteSpace=wrap;connectable=0;strokeColor=inherit;overflow=hidden;fillColor=none;top=0;left=0;bottom=0;right=0;pointerEvents=1;" parent="jlO6LnH5YCkx6k-9YU8t-53" vertex="1">
          <mxGeometry x="60" width="60" height="40" as="geometry">
            <mxRectangle width="60" height="40" as="alternateBounds" />
          </mxGeometry>
        </mxCell>
      </root>
    </mxGraphModel>
  </diagram>
  <diagram id="WMwJBg6qbQyO034Qd8hD" name="Events">
    <mxGraphModel dx="1194" dy="793" grid="1" gridSize="10" guides="1" tooltips="1" connect="1" arrows="1" fold="1" page="1" pageScale="1" pageWidth="850" pageHeight="1100" math="0" shadow="0">
      <root>
        <mxCell id="0" />
        <mxCell id="1" parent="0" />
      </root>
    </mxGraphModel>
  </diagram>
</mxfile>
